<?xml version="1.0" encoding="UTF-8"?>
<svg xmlns="http://www.w3.org/2000/svg" width="1200" height="630" viewBox="0 0 1200 630">
  <defs>
    <pattern id="ht" width="4" height="4" patternUnits="userSpaceOnUse">
      <circle cx="0.7" cy="0.7" r="0.55" fill="#18140F" opacity="0.09"/>
    </pattern>
  </defs>
  <rect width="1200" height="630" fill="#F1E9D8"/>
  <rect width="1200" height="630" fill="url(#ht)"/>
  <rect x="48" y="36" width="14" height="14" fill="#18140F"/>
  <rect x="68" y="36" width="14" height="14" fill="#E8377E"/>
  <rect x="88" y="36" width="14" height="14" fill="#FFD23F"/>
  
  <g stroke="#18140F" stroke-width="2.2" stroke-linecap="square">
    <path d="M48 78 h14 M55 71 v14"/>
  </g>
  <line x1="860" y1="43" x2="1004" y2="43" stroke="#18140F" stroke-width="2"/>
  <g fill="#18140F" opacity="0.55"><circle cx="1024" cy="34" r="1.25"/><circle cx="1032" cy="34" r="1.25"/><circle cx="1040" cy="34" r="1.25"/><circle cx="1048" cy="34" r="1.25"/><circle cx="1056" cy="34" r="1.25"/><circle cx="1024" cy="42" r="1.25"/><circle cx="1032" cy="42" r="1.25"/><circle cx="1040" cy="42" r="1.25"/><circle cx="1048" cy="42" r="1.25"/><circle cx="1056" cy="42" r="1.25"/></g>
  <g stroke="#18140F" stroke-width="2.2" stroke-linecap="square">
    <path d="M1132 584 h14 M1139 577 v14"/>
  </g>
  <g fill="#E8377E">
    <rect x="1072" y="598" width="18" height="4" transform="rotate(-28 1081 600)"/>
    <rect x="1092" y="598" width="18" height="4" transform="rotate(-28 1101 600)"/>
    <rect x="1112" y="598" width="18" height="4" transform="rotate(-28 1121 600)"/>
  </g>
  
    <text x="48" y="248" font-family="Anton" font-size="156" fill="#18140F">RWA</text>
    <text x="312" y="228" font-family="Anton" font-size="108" fill="#E8377E">*</text>
    <text x="48" y="372" font-family="Oswald" font-weight="700" font-size="108" fill="#E8377E">Курс</text>
    <text x="48" y="428" font-family="Inter" font-weight="600" font-size="24" fill="#18140F">Шесть модулей. Без сигналов.</text>
    <text x="48" y="548" font-family="Anton" font-size="36" fill="#18140F">by YuRichHUB</text>
    <path d="M 50 566
    C 73.52 558, 93.12 572, 120.56 564
    S 163.68 571, 191.12 563
    S 226.4 569, 246 562" fill="none" stroke="#E8377E" stroke-width="5.5" stroke-linecap="round"/>

    <g transform="rotate(-8 1088 150)">
      <rect x="1008" y="78" width="168" height="148" fill="#FFD23F"/>
    </g>
    <g>
      <rect x="800" y="176" width="324" height="286" fill="#18140F"/>
      <rect x="792" y="168" width="324" height="286" fill="#F7F1E4" stroke="#18140F" stroke-width="3"/>
      <rect x="792" y="168" width="324" height="52" fill="#18140F"/>
      <text x="814" y="202" font-family="Inter" font-weight="700" font-size="16" letter-spacing="2.2" fill="#F1E9D8">00 — 06</text>
      <text x="814" y="322" font-family="Anton" font-size="128" fill="#18140F">06</text>
      <text x="814" y="364" font-family="Oswald" font-weight="700" font-size="32" fill="#18140F">МОДУЛЕЙ</text>
      <line x1="814" y1="384" x2="906" y2="384" stroke="#E8377E" stroke-width="5"/>
      <text x="814" y="420" font-family="Inter" font-weight="500" font-size="18" fill="#6E675C">от матчасти до карты</text>
    </g>
    <g transform="rotate(5 978 498)">
      <rect x="862" y="470" width="232" height="52" fill="#E8377E" stroke="#18140F" stroke-width="3"/>
      <text x="978" y="504" text-anchor="middle" font-family="Oswald" font-weight="700" font-size="22" letter-spacing="1.2" fill="#F1E9D8">0 СИГНАЛОВ</text>
    </g>
  
</svg>